<?xml version="1.0" encoding="UTF-8"?>
<svg xmlns="http://www.w3.org/2000/svg" version="1.1" viewBox="0 0 471.6 471.59">
  <defs>
    <style>
      .cls-1 {
        fill: #c29c63;
      }

      .cls-2 {
        fill: #fafaf8;
      }

      .cls-3 {
        fill: #8ea2a9;
      }

      .cls-4 {
        fill: #7b2a3b;
      }
    </style>
  </defs>
  <!-- Generator: Adobe Illustrator 28.7.1, SVG Export Plug-In . SVG Version: 1.2.0 Build 142)  -->
  <g>
    <g id="Capa_1">
      <path class="cls-4" d="M471.6,220.07v32.19c-1.07.22-.77,1.09-.83,1.77-1.16,13.01-2.93,25.95-6.23,38.57-14.5,55.38-44.54,100.39-90.92,134.1-34.33,24.95-72.76,39.45-115.08,43.54-2.58.25-5.37-.21-7.76,1.34h-31.44c-3.55-1.57-7.4-1.15-11.11-1.64-17.53-2.32-34.65-6.18-51.31-12.31-29.57-10.88-56.12-26.68-79.39-47.86-15.27-13.9-28.44-29.64-39.76-46.98-14.32-21.93-23.92-45.87-30.91-70.91-3.33-11.94-4.98-24.29-6.01-36.65-2.25-26.96-.02-53.54,7.35-79.63,5.45-19.29,12.68-37.84,22.64-55.29,8.84-15.49,19.17-29.89,31.21-43.01,8.65-9.43,18.05-18.1,28.08-26.11,23.68-18.92,50.28-32.21,78.99-41.43,15.39-4.94,31.3-7.56,47.37-8.93,30.86-2.62,61.08.97,90.52,10.52,57.55,18.67,101.67,54.26,132.44,106.26,16.23,27.43,26.11,57.11,30.1,88.78.57,4.56.03,9.33,2.06,13.68ZM442.21,289.58c.06-.17.06-.34.02-.51,1.33-4.76,2.58-9.55,3.09-14.48.26-.96.61-1.9.77-2.88.84-5.23.82-5.23-4.36-5.23-40.04,0-80.09.02-120.13.02-25.7,0-51.39,0-77.09-.03-1.07,0-2.94.52-3.1-.39-.46-2.52-.69-5.24-.23-7.73.34-1.81,2.54-.84,3.85-.84,66.36-.05,132.73-.06,199.09.05,3.2,0,4.13-.74,4.36-4.01,1.15-15.86.76-31.63-1.49-47.38-6.17-43.28-23.49-81.6-53.31-113.45-52.18-55.72-116.63-78.64-192.29-67.22-50.41,7.61-92.35,31.76-126.03,69.94-28.63,32.45-45.41,70.44-51.2,113.29-.81,6.03-1.1,12.13-1.63,18.19,9.91-11.34,19.81-22.19,30.76-32.04,12.61-11.35,25.63-22.2,41.59-28.64,9.73-3.93,19.74-6.99,30.48-5.36,3.88.59,7.6,1.95,11.38,2.88,9.27,2.28,14.96,8.06,17.36,16.86,2.77,10.13,2.35,20.47-.36,30.58-9.08,33.91-31.12,56.84-61.74,72.46-11.12,5.67-23.02,9.5-34.32,14.74-3.65,1.69-7.56,2.06-11.61,2.01-4.75-.06-9.19-1.72-14.46-2.52,1.84,4.63,2.48,9.06,4.92,12.86,1.84,7.42,5.44,14.09,8.77,20.89,2.02,3.53,3.21,7.56,6.26,10.47.27.81.41,1.71.84,2.43,4.45,7.49,9.17,14.79,14.72,21.53,3.14,3.85,6.28,7.7,9.42,11.54.9,1.1,2.06,1.64,3.47,1.96,3.92.91,7.8,2,11.7,3.01,6.62,1.71,13.15,4.05,19.88,4.96,9.87,1.34,19.8,2.57,29.82,2.49,4.03.76,8.09.72,12.16.56,28.21,1.26,55.66-3.42,82.74-10.76,24.02-6.52,46.72-16.6,69.23-26.95,29.17-13.41,59.6-21.48,91.48-24.42,9.34-.86,18.67-.88,28.01.04,1.09.11,2.54.85,3.24-.85,1.51-3.65,3.82-6.97,4.44-10.98,3.12-5.66,4.94-11.81,6.74-17.96.8-2.7,1.6-5.41,2.4-8.11.44-.23.56-.56.35-1.01Z"/>
      <path class="cls-2" d="M36.54,310.75c-2.44-3.81-3.09-8.24-4.92-12.86,5.27.8,9.71,2.46,14.46,2.52,4.05.05,7.95-.32,11.61-2.01,11.3-5.24,23.2-9.06,34.32-14.74,30.62-15.63,52.66-38.55,61.74-72.46,2.71-10.11,3.13-20.45.36-30.58-2.41-8.8-8.1-14.58-17.36-16.86-3.78-.93-7.5-2.3-11.38-2.88-10.74-1.63-20.75,1.43-30.48,5.36-15.95,6.45-28.97,17.29-41.59,28.64-10.95,9.85-20.85,20.7-30.76,32.04.53-6.07.81-12.17,1.63-18.19,5.79-42.84,22.57-80.83,51.2-113.29,33.68-38.18,75.62-62.34,126.03-69.94,75.65-11.42,140.1,11.5,192.29,67.22,29.82,31.84,47.14,70.17,53.31,113.45,2.25,15.75,2.64,31.52,1.49,47.38-.24,3.27-1.16,4.02-4.36,4.01-66.36-.11-132.73-.1-199.09-.05-1.31,0-3.51-.97-3.85.84-.46,2.49-.24,5.21.23,7.73.17.91,2.03.39,3.1.39,25.7.03,51.39.03,77.09.03,40.04,0,80.09-.01,120.13-.02,5.18,0,5.2,0,4.36,5.23-.16.97-.51,1.92-.77,2.88-2.99-.09-6.02.12-8.97-.31-22.08-3.2-44.09-1.43-65.98,1.44-9.38,1.23-18.69,3.43-27.91,5.89-21.06,5.6-41.5,12.96-61.34,21.83-17.84,7.97-35.78,15.7-54.33,21.72-18.21,5.91-36.93,9.89-56.3,10.15-19.9.27-39.76.22-59.34-3.81-16.44-3.38-32.62-7.78-48.43-13.53-8.52-3.1-17.21-5.71-26.18-7.23ZM80.89,301.71c-.8.14-1.46.55-1.44,1.39.02.77.82.88,1.4.87,5.03-.1,10.08.5,15.07-.55,15.91.05,31.83.98,47.73-.38,1.57-.13,3.12.07,4.75-.31,5.82-1.33,11.76-2.18,17.57-3.56,6.35-1.5,12.55-3.53,18.46-6.41,8.39-4.08,15.65-9.81,22.77-15.66,9.1-7.48,16.98-16.26,22.42-26.69,4.96-9.51,8.22-19.81,10.39-30.4,3.36-16.36,2.86-32.5-3.7-47.96-5.19-12.22-12.25-23.36-21.83-32.81-5.16-5.08-9.81-10.63-12.02-17.79-2.01-6.52-1.95-12.91,1.88-18.68,6.2-9.34,15.14-14.43,26.28-15.23,19.04-1.38,38.12-1.86,57.21-1.54,22.95.39,45.88,1.39,68.84.89.87-.02,1.9.35,2.75-.59-2.28-1.45-4.73-1.94-7.1-2.62-18.93-5.39-38.52-7.63-57.69-11.89-9.11-2.02-18.36-3.58-27.61-4.8-6.34-.83-12.15-2-15.85-7.86-.32-.5-.94-.81-1.41-1.22-6.07-5.28-13.24-8.22-20.99-10.08-11.8-2.84-23.39-2.3-34.27,2.99-11.23,5.46-18.53,15.24-25.06,25.48-12.01,18.83-11.4,41.03,1.24,59.44,4.84,7.04,11.03,12.86,16.66,19.19,3.88,4.36,6.81,9.22,8.32,14.87,2.79,10.48-2.06,16.89-12.9,17.01-5.18.06-10.35-.06-15.31-2.81.11,7.86.6,15.31-.51,22.77-3.73,25-15.03,45.96-33.28,63.3-12.01,11.42-26.52,18.78-41.42,25.49-3.94,1.77-8.01,3.27-11.35,6.14Z"/>
      <path class="cls-1" d="M36.54,310.75c8.97,1.52,17.66,4.14,26.18,7.23,15.81,5.74,31.98,10.15,48.43,13.53,19.58,4.03,39.44,4.08,59.34,3.81,19.37-.27,38.09-4.25,56.3-10.15,18.55-6.02,36.49-13.75,54.33-21.72,19.83-8.86,40.28-16.22,61.34-21.83,9.22-2.45,18.52-4.66,27.91-5.89,21.9-2.87,43.9-4.64,65.98-1.44,2.94.43,5.98.22,8.97.31-.51,4.94-1.76,9.72-3.09,14.48-5.61-.11-11.25.13-16.82-.41-14.49-1.4-28.93-.87-43.22,1.55-21.51,3.63-42.77,8.47-63.45,15.52-14.75,5.03-29.27,10.66-43.53,16.95-29.13,12.85-58.47,24.78-90.83,27.11-23.06,1.66-46.08,1.81-68.96-1.19-18.52-2.43-36.45-7.79-54.22-13.55-5.18-1.68-10.36-3.33-15.88-3.43-3.33-6.79-6.93-13.47-8.77-20.89Z"/>
      <path class="cls-1" d="M439.45,298.71c-1.81,6.15-3.63,12.3-6.74,17.96-11.05-.13-22.01-1.55-33.14-.9-11.93.7-23.76,1.52-35.52,3.82-11.46,2.25-22.68,5.35-33.76,8.85-16.26,5.13-31.7,12.46-47.32,19.24-15.29,6.64-30.37,13.8-46.38,18.62-10.11,3.05-20.23,5.93-30.72,7.69-8.58,1.44-17.13,3.33-25.77,3.99-17.76,1.34-35.55,1.21-53.31-.71-14.76-1.6-29.34-4.01-43.7-7.79-5.26-1.38-10.43-3.26-15.96-3.42-5.55-6.74-10.27-14.05-14.72-21.53-.43-.72-.57-1.62-.84-2.43,1.58-.29,2.93.53,4.3,1.02,17.12,6.14,34.39,11.63,52.31,15.09,31.11,6,62.23,5.1,93.38.73,21.79-3.06,42.14-11.01,62.26-19.42,19.65-8.21,38.87-17.4,59.01-24.47,14.58-5.12,29.53-8.62,44.62-11.83,16.75-3.57,33.55-6.01,50.73-5.34,7.09.27,14.16,1.25,21.28.84Z"/>
      <path class="cls-2" d="M67.13,366.07c5.53.16,10.7,2.04,15.96,3.42,14.36,3.78,28.94,6.19,43.7,7.79,17.77,1.92,35.55,2.06,53.31.71,8.64-.65,17.19-2.55,25.77-3.99,10.49-1.76,20.61-4.65,30.72-7.69,16.01-4.82,31.09-11.98,46.38-18.62,15.62-6.79,31.06-14.11,47.32-19.24,11.08-3.5,22.3-6.6,33.76-8.85,11.77-2.31,23.59-3.12,35.52-3.82,11.13-.65,22.1.77,33.14.9-.61,4.01-2.92,7.33-4.44,10.98-.7,1.7-2.15.96-3.24.85-9.34-.91-18.67-.9-28.01-.04-31.88,2.94-62.31,11.01-91.48,24.42-22.51,10.35-45.21,20.43-69.23,26.95-27.08,7.34-54.53,12.02-82.74,10.76-4.01-1.03-8.08-.85-12.16-.56-10.01.08-19.95-1.15-29.82-2.49-6.73-.91-13.26-3.25-19.88-4.96-3.9-1.01-7.78-2.1-11.7-3.01-1.41-.33-2.57-.86-3.47-1.96-3.14-3.85-6.28-7.7-9.42-11.54Z"/>
      <path class="cls-2" d="M439.45,298.71c-7.12.41-14.18-.57-21.28-.84-17.18-.67-33.98,1.77-50.73,5.34-15.08,3.21-30.03,6.71-44.62,11.83-20.13,7.07-39.36,16.26-59.01,24.47-20.12,8.41-40.47,16.36-62.26,19.42-31.14,4.37-62.26,5.27-93.38-.73-17.92-3.46-35.19-8.95-52.31-15.09-1.38-.49-2.72-1.31-4.3-1.02-3.05-2.91-4.24-6.94-6.26-10.47,5.52.1,10.71,1.75,15.88,3.43,17.77,5.76,35.7,11.12,54.22,13.55,22.88,3,45.89,2.85,68.96,1.19,32.36-2.33,61.7-14.26,90.83-27.11,14.26-6.29,28.78-11.92,43.53-16.95,20.69-7.05,41.94-11.9,63.45-15.52,14.29-2.41,28.72-2.95,43.22-1.55,5.57.54,11.21.3,16.82.41.04.17.04.34-.02.51-.42.23-.53.57-.35,1.01-.8,2.7-1.6,5.41-2.4,8.11Z"/>
      <path class="cls-3" d="M141.4,390.03c4.08-.29,8.15-.47,12.16.56-4.07.16-8.13.2-12.16-.56Z"/>
      <path class="cls-3" d="M441.85,290.6c-.17-.44-.06-.78.35-1.01.2.45.08.79-.35,1.01Z"/>
      <path class="cls-4" d="M80.89,301.71c3.34-2.86,7.41-4.36,11.35-6.14,14.91-6.71,29.41-14.07,41.42-25.49,18.24-17.34,29.55-38.3,33.28-63.3,1.11-7.45.62-14.91.51-22.77,4.96,2.75,10.13,2.87,15.31,2.81,10.84-.12,15.69-6.53,12.9-17.01-1.51-5.65-4.44-10.52-8.32-14.87-5.63-6.33-11.82-12.15-16.66-19.19-12.64-18.41-13.24-40.61-1.24-59.44,6.53-10.24,13.83-20.03,25.06-25.48,10.88-5.29,22.47-5.83,34.27-2.99,7.76,1.87,14.92,4.8,20.99,10.08.47.41,1.09.72,1.41,1.22,3.7,5.86,9.51,7.03,15.85,7.86,9.26,1.21,18.5,2.77,27.61,4.8,19.17,4.25,38.76,6.5,57.69,11.89,2.37.68,4.82,1.16,7.1,2.62-.85.94-1.88.57-2.75.59-22.96.5-45.89-.5-68.84-.89-19.09-.32-38.17.16-57.21,1.54-11.14.81-20.08,5.9-26.28,15.23-3.83,5.78-3.9,12.17-1.88,18.68,2.21,7.16,6.86,12.71,12.02,17.79,9.58,9.44,16.64,20.59,21.83,32.81,6.56,15.46,7.06,31.59,3.7,47.96-2.18,10.59-5.43,20.88-10.39,30.4-5.44,10.43-13.32,19.21-22.42,26.69-7.12,5.85-14.38,11.58-22.77,15.66-5.92,2.87-12.11,4.9-18.46,6.41-5.81,1.37-11.75,2.23-17.57,3.56-1.63.37-3.18.17-4.75.31-15.9,1.36-31.82.43-47.73.38-4.08-.02-8.15,0-12.22-.1-1.14-.03-3,.87-2.81-1.61ZM241.57,69.05c-.06-3.31-3.19-6.2-6.62-6.12-2.92.07-5.66,3.09-5.6,6.15.07,2.91,3.4,6,6.47,6.01,3.14,0,5.8-2.79,5.74-6.03Z"/>
      <path class="cls-3" d="M80.89,301.71c-.19,2.48,1.67,1.58,2.81,1.61,4.07.1,8.15.08,12.22.1-4.99,1.05-10.04.45-15.07.55-.59.01-1.38-.1-1.4-.87-.03-.84.64-1.25,1.44-1.39Z"/>
      <path class="cls-2" d="M241.57,69.05c.06,3.24-2.6,6.04-5.74,6.03-3.07,0-6.4-3.1-6.47-6.01-.07-3.06,2.67-6.08,5.6-6.15,3.42-.08,6.56,2.81,6.62,6.12Z"/>
      <polygon class="cls-4" points="365.24 219.23 366.93 181.26 346.86 165.42 349.76 160.34 351.58 161.43 369.11 158.77 368.62 157.56 372.01 156.83 374.91 157.32 374.91 158.77 391.36 161.43 393.41 159.86 396.07 165.06 376.12 181.14 377.57 219.23 365.24 219.23"/>
      <polygon class="cls-4" points="249.92 262.56 249.92 260.82 255.88 260.82 255.88 201.75 272.32 201.94 272.32 210.94 272.36 213.07 282.33 213.05 282.33 190.76 284.66 188 290.61 188 292.94 190.33 292.94 223.17 300.64 223.1 300.64 210.67 315.47 210.53 315.47 223.39 321.72 223.39 321.72 185.38 336.84 185.38 336.44 206.47 342.21 206.47 342.21 200.94 349.34 193.81 357.18 200.5 357.18 218.81 365.62 218.81 365.62 202.24 385.82 202.24 385.82 208.35 411.26 209.08 411.26 224.92 417.07 225.06 417.07 184.22 435.67 190.91 435.67 258.35 441.2 258.64 441.2 262.56 249.92 262.56"/>
      <path class="cls-4" d="M302.19,234.69"/>
    </g>
  </g>
</svg>