<?xml version="1.0" encoding="UTF-8"?>
<svg xmlns="http://www.w3.org/2000/svg" version="1.1" viewBox="0 0 60 60">
  <defs>
    <style>
      .cls-1 {
        fill: #fff;
      }

      .cls-2 {
        fill: #c39c63;
      }
    </style>
  </defs>
  <!-- Generator: Adobe Illustrator 28.7.1, SVG Export Plug-In . SVG Version: 1.2.0 Build 142)  -->
  <g>
    <g id="Capa_1">
      <g id="Capa_1-2" data-name="Capa_1">
        <path class="cls-1" d="M60,46c0,4.5,0,9.1,0,13.6,0,.3,0,.4-.4.4-19.7,0-39.4,0-59.2,0-.3,0-.4,0-.4-.4,0-19.7,0-39.4,0-59.2C0,0,.2,0,.5,0c13.1,0,26.1,0,39.2,0-.5.5-.6,1-.3,1.7.1.3.1.5-.2.8-.8.6-1.2,1.5-1.1,2.5,0,.8.2,1.7.4,2.5.2,1.3.3,2.6.4,3.8,0,1.4.6,2.5,2,3,.2,0,.3.2.3.4,0,.4,0,.7,0,1.1.1,1.9.2,3.8.2,5.7,0,1,.2,2.1.1,3.2,0-.1-.2-.2-.2-.3-1-2-2.3-3.9-4-5.4-.6-.5-1.1-1-1.9-1.2-.4-.2-.7,0-.9.2-.3.3-.4.5-.2.9.2.5.4,1,.6,1.5,1,2.4,1.7,4.9,2.3,7.5.4,1.6.6,3.3.8,5,0,.2,0,.2-.2.2-2-.3-4.1-.2-6.1-.3-1.5,0-3,0-4.5,0-.2,0-.5,0-.4-.3.1-.5.1-1.1.3-1.6.3-1.7.6-3.4,1-5.1.6-2.8,1.4-5.6,2.3-8.3,0-.2.1-.3.4-.3,1.2,0,1.9-.6,2.4-1.6.9-2.1,1.8-4.2,2.8-6.2.4-.9.5-1.8,0-2.6-.4-.6-.3-1.1.1-1.6,0,0,0,0,.1-.1.2-.4,0-1.1-.5-1.3-.4-.2-.9,0-1.2.4-.2.2-.3.5-.5.7-.1.2-.2.2-.5.2-1.2,0-2.2.4-2.8,1.6-1,2-1.9,4-2.7,6-.6,1.4-.6,2.7.5,3.8.2.2.1.3,0,.5-1.1,3.4-2.1,6.8-2.7,10.3-.3,1.7-.6,3.5-.9,5.3,0,.6-.6.2-.9.3-.6.1-.8-.2-.7-.7,0-1.5,0-3,0-4.5.1-1.8.3-3.5.5-5.3.2-1.7.5-3.5.9-5.2.1-.5,0-.9-.5-1.2-.5-.2-.9,0-1.2.3-1.2,1.6-2.3,3.3-3.1,5.1-.2.4-.3.8-.6,1.4,0-2.6,0-5,0-7.4,0-.4.1-.5.4-.7,1-.6,1.6-1.4,1.6-2.6,0-2.3-.1-4.5-.2-6.7,0-1.2-.5-2.2-1.6-2.7-.8-.3-1-.8-1-1.5,0-.4-.3-.7-.7-.8-.4,0-.8,0-1,.4-.3.3-.2.7,0,1.1.1.4,0,.7-.4,1-.9.6-1.3,1.5-1.2,2.5,0,.6.1,1.3.2,1.9,0,1.6.2,3.1.2,4.7,0,1.2.5,2.2,1.6,2.7.2,0,.3.2.3.5,0,2.8,0,5.6,0,8.3-.6-1.8-1.2-3.6-2-5.4-.5-1.1-.9-2.2-1.6-3.2-.2-.4-.6-.5-1-.4-.5.1-.7.5-.7.9,0,.6,0,1.1.1,1.7,0,1.3.1,2.6.3,3.9,0,.6,0,1.2.1,1.8.1.8.1,1.5.2,2.3-.7-2.6-1.5-5.1-2.3-7.7-.4-1.1-.8-2.3-1.2-3.4,0-.3-.1-.4.1-.6.9-.9,1.1-2,.7-3.2-.7-2.1-1.5-4.1-2.3-6.1-.4-1-1-2-2.2-2.1-.9,0-1.3-.5-1.6-1.2-.2-.4-.5-.5-1-.4-.4,0-.6.3-.8.7-.1.5.1.7.3,1.1.1.2.4.4.1.7-.7.9-1,1.9-.5,3.1.9,2.1,1.7,4.1,2.4,6.3.4,1,1.2,1.7,2.2,1.9.5,0,.6.3.7.7.8,2.1,1.5,4.3,2.1,6.5.3.9.5,1.8.8,2.7-1.3-1.4-2.5-2.9-4-4.2-.5-.4-.9-.5-1.3-.2-.5.3-.5.8-.3,1.3,0,0,0,.1,0,.2,1.1,2.4,1.9,4.9,2.8,7.3.2.6.7.8,1.3.6.4-.1.6-.7.5-1.2-.3-.9-.6-1.8-.8-2.7,0,0,0,0,0,0,1.8,2.3,3.2,4.9,4.2,7.7.4,1,.3,1-.7,1.2-.2,0-.4,0-.5.1-.4.2-.5,0-.5-.4-.2-.8-.4-1.6-.6-2.4-.2-.6-.6-.8-1.1-.6-.5.2-.8.6-.7,1.2.2.8.3,1.5.6,2.3.1.4,0,.5-.4.6-.8.2-1.7.4-2.5.7-2,.7-3.9,1.4-5.4,3-.8.9-.9,1.8-.7,2.9.4,1.6,1.7,2.3,3.1,2.9,1.4.6,2.8,1.1,4.3,1.6,2.2.7,4.1,1.7,5.7,3.5.7.8,1.4,1.7,2.1,2.5.9,1.1,2.1,1.8,3.4,2.5-.5.6-1,1.2-1.4,1.9-.5.8-.5,1.7,0,2.5.4.7,1.1,1.2,2.1,1.2,7.4,0,14.7,0,22.1,0,.6,0,1-.4,1-.9,0-.5-.4-.9-1-.9-1.7,0-3.4,0-5,0-.4,0-.7,0-1-.1-.8-.2-1.2-1-.8-1.8.4-.8.9-1.6,1.6-2.2,1.5-1.4,3.4-2.2,5.5-2.4,2.1-.2,4.1,0,5.9,1.1,1.5.8,2.7,1.9,3.4,3.5.2.5.2.9-.1,1.3-.4.5-1,.5-1.5.5-1.4,0-2.8,0-4.2,0-.7,0-1,.2-1,.9,0,.6.3.9,1,.9,1.7,0,3.4,0,5.1,0,1.4,0,2.7-1.4,2.8-2.7,0-1.1-.3-2-.9-2.9-.2-.3-.2-.4.2-.6.7-.3,1.4-.7,2.1-1.1,1.6-.9,2.9-2,4-3.4.8-.9,1.2-2,1.5-3.1h0Z"/>
        <path class="cls-2" d="M60,46c-.4,1.1-.8,2.2-1.5,3.1-1.1,1.4-2.5,2.5-4,3.4-.7.4-1.4.8-2.1,1.1-.3.2-.4.2-.2.6.6.9,1,1.8.9,2.9,0,1.4-1.4,2.7-2.8,2.7-1.7,0-3.4,0-5.1,0-.7,0-1-.3-1-.9,0-.6.3-.9,1-.9,1.4,0,2.8,0,4.2,0,.6,0,1.1,0,1.5-.5.3-.4.4-.9.1-1.3-.7-1.6-1.9-2.7-3.4-3.5-1.8-1.1-3.9-1.3-5.9-1.1-2.1.2-3.9,1-5.5,2.4-.7.6-1.2,1.4-1.6,2.2-.4.7,0,1.6.8,1.8.3,0,.7.1,1,.1,1.7,0,3.4,0,5,0,.5,0,.9.4,1,.9,0,.5-.4.9-1,.9-7.4,0-14.7,0-22.1,0-.9,0-1.6-.5-2.1-1.2-.5-.8-.5-1.7,0-2.5.4-.7.9-1.3,1.4-1.9-1.3-.6-2.4-1.4-3.4-2.5-.7-.8-1.4-1.7-2.1-2.5-1.5-1.8-3.5-2.8-5.7-3.5-1.5-.5-2.9-.9-4.3-1.6-1.3-.6-2.6-1.3-3.1-2.9-.3-1.1-.1-2,.7-2.9,1.5-1.6,3.4-2.3,5.4-3,.8-.3,1.6-.5,2.5-.7.4,0,.5-.2.4-.6-.2-.7-.4-1.5-.6-2.3-.1-.5.1-1,.7-1.2.6-.2,1,0,1.1.6.2.8.4,1.6.6,2.4,0,.3.1.6.5.4.1,0,.3,0,.5-.1,1.1-.2,1.1-.2.7-1.2-1-2.8-2.3-5.4-4.2-7.7,0,0,0-.2-.2,0,0,0,0,.1,0,.2.3.9.6,1.8.8,2.7.2.5,0,1.1-.5,1.2-.6.2-1.1,0-1.3-.6-.8-2.5-1.7-5-2.8-7.3,0,0,0-.1,0-.2-.2-.5-.2-1,.3-1.3.4-.3.9-.2,1.3.2,1.5,1.2,2.7,2.7,4,4.2-.3-.9-.5-1.8-.8-2.7-.7-2.2-1.4-4.3-2.1-6.5-.1-.4-.3-.6-.7-.7-1.1-.2-1.9-.9-2.2-1.9-.7-2.1-1.5-4.2-2.4-6.3-.5-1.1-.2-2.1.5-3.1.3-.4,0-.5-.1-.7-.2-.4-.4-.6-.3-1.1.1-.4.3-.6.8-.7.4,0,.8,0,1,.4.3.8.7,1.1,1.6,1.2,1.1,0,1.7,1,2.2,2.1.8,2,1.6,4,2.3,6.1.4,1.2.2,2.3-.7,3.2-.2.2-.2.4-.1.6.4,1.1.8,2.3,1.2,3.4.8,2.5,1.6,5.1,2.3,7.7,0-.8-.1-1.5-.2-2.3,0-.6,0-1.2-.1-1.8-.2-1.3-.2-2.6-.3-3.9,0-.6-.1-1.1-.1-1.7,0-.5.2-.8.7-.9.5-.1.8,0,1,.4.6,1,1.1,2.1,1.6,3.2.7,1.8,1.4,3.5,2,5.4,0-2.8,0-5.6,0-8.3,0-.3-.2-.4-.3-.5-1.2-.5-1.7-1.5-1.6-2.7,0-1.6-.1-3.1-.2-4.7,0-.6-.1-1.3-.2-1.9,0-1,.3-2,1.2-2.5.4-.3.5-.6.4-1,0-.4-.2-.8,0-1.1.3-.3.6-.5,1-.4.4,0,.6.4.7.8,0,.7.2,1.2,1,1.5,1.1.5,1.5,1.5,1.6,2.7.1,2.2.3,4.5.2,6.7,0,1.2-.6,2.1-1.6,2.6-.3.2-.4.3-.4.7,0,2.4,0,4.9,0,7.4.3-.5.4-.9.6-1.4.8-1.8,1.9-3.6,3.1-5.1.3-.4.7-.6,1.2-.3.5.3.6.7.5,1.2-.4,1.7-.7,3.5-.9,5.2-.2,1.8-.4,3.5-.5,5.3-.1,1.5,0,3,0,4.5,0,.5.2.8.7.7.3,0,.8.3.9-.3.3-1.8.6-3.5.9-5.3.7-3.5,1.6-6.9,2.7-10.3,0-.2.1-.3,0-.5-1.1-1.2-1.1-2.4-.5-3.8.9-2,1.7-4.1,2.7-6,.6-1.2,1.6-1.5,2.8-1.6.2,0,.4,0,.5-.2.1-.3.3-.5.5-.7.3-.4.8-.6,1.2-.4.4.2.6.9.5,1.3,0,0,0,0-.1.1-.4.5-.5.9-.1,1.6.6.8.5,1.7,0,2.6-1,2-1.9,4.2-2.8,6.2-.4,1-1.2,1.6-2.4,1.6-.2,0-.3.1-.4.3-.9,2.7-1.7,5.5-2.3,8.3-.4,1.7-.7,3.4-1,5.1-.1.5-.1,1.1-.3,1.6,0,.4.2.3.4.3,1.5,0,3,0,4.5,0,2,.1,4.1,0,6.1.3.2,0,.3,0,.2-.2-.2-1.7-.5-3.3-.8-5-.6-2.6-1.4-5.1-2.3-7.5-.2-.5-.4-1-.6-1.5-.2-.4,0-.7.2-.9.3-.3.5-.4.9-.2.7.3,1.3.7,1.9,1.2,1.7,1.5,3,3.3,4,5.4,0,0,.1.2.2.3.1-1.1-.1-2.1-.1-3.2,0-1.9-.1-3.8-.2-5.7,0-.4-.1-.7,0-1.1,0-.2,0-.3-.3-.4-1.4-.5-1.9-1.6-2-3,0-1.3-.2-2.6-.4-3.8-.1-.8-.3-1.7-.4-2.5-.1-1,.3-1.9,1.1-2.5.3-.3.4-.5.2-.8-.3-.6-.2-1.2.3-1.7h.9c.5.4.5,1,.7,1.5,0,.2.1.3.4.4,1.1.3,1.9,1,2.2,2.1.2,1.1.4,2.3.5,3.4.1,1,.3,2,.3,3,.1,1.3.2,2.7-1.2,3.6-.7.4-.6.9-.5,1.5,0,0,0,.2,0,.2,0,2.1.2,4.1.2,6.2,0,.6,0,1.2.2,1.8.1-.4.2-.8.3-1.2.5-2.1.9-4.2,1.3-6.3,0-.5.4-.9.9-.9.4,0,.8.2.9.7.4,1.6.7,3.2.8,4.9.1,1.3.3,2.7.3,4,.7-2.6,1.6-5.1,2.4-7.6,0-.3,0-.4-.2-.6-.5-.5-.8-1.2-.8-1.9,0-1.1.6-2.1,1-3.1.2-.5.7-.6,1.1-.5.4,0,.6.4.6.9,0,.8-.4,1.4-.7,2.1-.3.7,0,1.3.6,1.6.6.2,1.1-.1,1.4-.8.5-1.2.9-2.4,1.5-3.5.4-.8.8-1.7,1.2-2.5.3-.6,0-1.1-.6-1.4-.5-.3-1,0-1.3.5-.2.4-.4.9-.7,1.3-.3.5-.8.7-1.3.4-.4-.2-.6-.7-.4-1.2,0-.2.2-.4.3-.6.6-1.5,1.5-2.5,3.3-2.4.3,0,.4-.2.5-.3.1-.2.2-.4.4-.6.3-.6.8-.5,1.3-.4.5.1.5.6.5,1,0,.4-.2.6-.4.8-.2.3-.2.5,0,.8.7,1.1.7,2.1.1,3.3-.9,1.8-1.7,3.6-2.4,5.5-.4,1.2-1.2,2-2.5,2.2-.4,0-.5.2-.6.5-.7,1.9-1.3,3.7-1.8,5.6-.3,1.2-.7,2.3-.8,3.6-.1,0-.1.2,0,.3.1,0,0-.1.2-.2,1-1.1,2-2.2,3.2-3.2.9-.8,1.9-1.5,3-2.1.4-.2.8-.3,1.2,0,.4.4.4.8.1,1.2-.3.5-.6.9-.8,1.4-1.1,2.1-2.2,4.1-3.1,6.3-.6,1.4-1.2,2.8-1.6,4.4,0,.3,0,.4.2.5,1.1.4,2.2,1,3.3,1.6,1.4.8,2.5,1.8,3.5,3.1.7.9,1.1,1.9,1.4,3v2.3h0ZM53,26.6c-.9.8-1.6,1.6-2.4,2.6-1.2,1.6-2.1,3.3-2.7,5.1-.1.3,0,.4.3.5.5,0,1,.3,1.4.4.5-1.8,1.2-3.6,2-5.3.5-1,1-2.1,1.5-3.1,0,0,.1-.1,0-.2,0,0-.1,0-.2,0h0ZM37.7,22.3s0-.2-.2,0c0,0,0,.1,0,.2,0,.2,0,.3,0,.5,1.1,3.3,1.8,6.6,2.1,10,0,.3.2.5.5.4.5,0,1,.1,1.5.1.4,0,.4,0,.3-.4-.2-1-.4-2.1-.8-3.1-.8-2.7-1.9-5.4-3.7-7.7h0ZM24.8,34.8c-.7,0-1.3,0-2,0-1.6,0-3.3.2-4.9.4-1.4.1-2.8.3-4.2.5-2.8.4-5.6,1-8.3,2.1-1.2.5-2.3,1-3.2,2-.4.5-.4,1.1,0,1.6.4.4.8.7,1.2.9,1.8,1,3.8,1.5,5.7,2.2.7.3,1.4.5,2.1.9,1.9,1,3.4,2.6,4.7,4.3,1.1,1.5,2.6,2.5,4.2,3.3.2.1.4.1.6,0,2.4-1.2,4.9-1.6,7.5-1.2,1.8.2,3.5.8,5,1.8.6.4.7.4,1.2-.2.8-1.2,2-1.9,3.2-2.5,2.3-1.1,4.7-1.4,7.2-1,2,.3,3.8,1,5.3,2.3.2.1.3.2.6.1,2.4-1,4.6-2.3,6.3-4.5.9-1.2,1.3-2.5,1-4-.4-1.8-1.7-3-3.1-4-2.4-1.7-5.1-2.7-7.9-3.4-3.2-.8-6.5-1.2-9.9-1.5-1.9-.2-3.8-.2-5.7-.2-2.2,0-4.4,0-6.6.1h0ZM33,58.1c-.3-.8-.3-1.4-.1-2.2,0-.2,0-.4-.2-.6-1.5-1.2-3.3-1.8-5.2-1.9-1.8-.1-3.6.1-5.3.9-1.3.6-2.4,1.4-3,2.7-.2.4,0,.8.4.9.2,0,.4.1.6.1,4.2,0,8.3,0,12.5,0,.1,0,.2,0,.4,0h0ZM45.9,22.1c-.3.5-.3,1-.4,1.6-.5,2-1,4-1.6,6-.1.4-.3.8-.2,1.3.2.5.3,1,.3,1.5.2,1.4.2,1.3,1.5,1.6.3,0,.3,0,.4-.2.1-1,.2-2,.2-3,0-2.9.1-5.9-.2-8.8h0ZM17.2,10.9v1.1c0,.8.3,1.1,1,1.1.7,0,1.1-.4,1.1-1.1,0-1.7,0-3.4-.2-5,0-.7,0-1.3-.2-2-.2-.6-.6-.9-1.3-.7-.4,0-.9.7-.8,1.1.3,1.8.2,3.7.3,5.5h0ZM42.8,11.1c0-.6-.2-1.4-.2-2.2,0-1.5-.3-2.9-.6-4.3-.1-.6-.7-1-1.3-.8-.5.1-.8.7-.7,1.3.1.5.2,1.1.3,1.6.2,1.6.4,3.2.5,4.9,0,.6.4,1,.9,1,.5,0,1-.2,1.1-.7,0-.2,0-.5,0-.9ZM8.3,11.2s0-.2,0-.3c-.7-2.2-1.5-4.4-2.5-6.5-.2-.6-.9-.8-1.4-.5-.5.2-.8.8-.5,1.3.9,2.1,1.7,4.2,2.4,6.3.2.5.7.8,1.1.8.5,0,.9-.6.9-1.2h0ZM30.4,15.3c.6,0,.8-.4,1-.8.3-.6.5-1.1.7-1.7.6-1.4,1.2-2.8,1.9-4.2.3-.6,0-1.3-.5-1.5-.5-.2-1.1,0-1.4.6-1,2-1.9,4.1-2.8,6.2-.3.7.3,1.4,1,1.4h0ZM21.9,21.7c-.4.6-.6,1.1-.8,1.6-1.1,2.8-1.8,5.8-2,8.8,0,.3-.1.8,0,1,.2.2.5,0,.8,0,.4,0,.8,0,1.2,0,.1,0,.2,0,.2-.3-.2-2.2,0-4.5,0-6.7,0-.5,0-1,.1-1.5.2-.9.2-1.8.3-2.8h0ZM14.4,21.3c0,1.6.2,3.2.3,4.8,0,1.3.2,2.5.2,3.8,0,.8.1,1.6.2,2.4,0,.4,0,.9.2,1.2.3.3.8,0,1.2,0,.6,0,.7-.1.6-.8-.2-1.5-.4-3-.7-4.5-.5-2.3-1.1-4.6-2-6.9h0Z"/>
        <path class="cls-1" d="M60,43.6c-.3-1.1-.7-2.1-1.4-3-1-1.2-2.1-2.3-3.5-3.1-1.1-.6-2.1-1.2-3.3-1.6-.3,0-.3-.2-.2-.5.4-1.5,1-2.9,1.6-4.4.9-2.2,2-4.2,3.1-6.3.3-.5.6-1,.8-1.4.3-.4.2-.8-.1-1.2-.4-.4-.8-.3-1.2,0-1.1.6-2.1,1.3-3,2.1-1.2,1-2.2,2.1-3.2,3.2,0,0,0,0,0,0,.1-1.2.5-2.4.8-3.6.5-1.9,1.2-3.8,1.8-5.6.1-.3.2-.5.6-.5,1.3-.2,2.1-1,2.5-2.2.7-1.9,1.5-3.7,2.4-5.5.6-1.1.6-2.2-.1-3.3-.2-.3-.1-.5,0-.8.2-.2.4-.5.4-.8,0-.4,0-.9-.5-1-.5-.1-1-.1-1.3.4-.1.2-.2.4-.4.6-.1.2-.2.4-.5.3-1.7,0-2.7.9-3.3,2.4,0,.2-.2.4-.3.6-.2.5,0,1,.4,1.2.5.2,1.1,0,1.3-.4.2-.4.4-.9.7-1.3.3-.6.8-.8,1.3-.5.6.3.8.8.6,1.4-.4.9-.8,1.7-1.2,2.5-.6,1.1-1,2.3-1.5,3.5-.3.7-.8,1-1.4.8-.6-.2-.8-.8-.6-1.6.2-.7.7-1.3.7-2.1s-.2-.8-.6-.9c-.4,0-.9,0-1.1.5-.4,1-1,1.9-1,3.1,0,.8.3,1.4.8,1.9.2.2.3.3.2.6-.9,2.5-1.8,5-2.4,7.6,0-1.4-.2-2.7-.3-4-.2-1.6-.4-3.3-.8-4.9-.1-.5-.5-.7-.9-.7-.5,0-.8.4-.9.9-.4,2.1-.8,4.2-1.3,6.3,0,.4-.2.7-.3,1.2-.1-.6-.2-1.2-.2-1.8,0-2.1-.1-4.1-.2-6.2,0,0,0-.2,0-.2-.1-.6-.2-1.1.5-1.5,1.3-.8,1.3-2.2,1.2-3.6,0-1-.2-2-.3-3-.1-1.1-.3-2.3-.5-3.4-.2-1.1-1-1.9-2.2-2.1-.3,0-.3-.1-.4-.4-.2-.5-.1-1.1-.7-1.5,6.3,0,12.6,0,18.9,0,.5,0,.5.1.5.5,0,14.4,0,28.7,0,43.1h0Z"/>
        <path class="cls-1" d="M24.8,34.8c2.2-.2,4.4-.2,6.6-.1,1.9,0,3.8,0,5.7.2,3.3.3,6.6.7,9.9,1.5,2.8.7,5.5,1.6,7.9,3.4,1.4,1,2.7,2.2,3.1,4,.3,1.5,0,2.8-1,4-1.6,2.1-3.8,3.4-6.3,4.5-.2,0-.4,0-.6-.1-1.5-1.3-3.4-2-5.3-2.3-2.5-.4-4.9-.1-7.2,1-1.2.6-2.4,1.4-3.2,2.5-.4.6-.5.6-1.2.2-1.5-1-3.1-1.6-5-1.8-2.6-.3-5.1,0-7.5,1.2-.2.1-.4,0-.6,0-1.6-.8-3.1-1.8-4.2-3.3-1.3-1.7-2.8-3.2-4.7-4.3-.7-.4-1.4-.6-2.1-.9-1.9-.7-3.9-1.2-5.7-2.2-.5-.2-.9-.5-1.2-.9-.4-.5-.4-1.1,0-1.6.9-1,2-1.5,3.2-2,2.7-1.1,5.4-1.6,8.3-2.1,1.4-.2,2.8-.4,4.2-.5,1.6-.1,3.3-.3,4.9-.4.7,0,1.3,0,2,0h0ZM31.7,44h6.1c4,0,8,0,12,0,.4,0,.8,0,1-.5.3-.7-.2-1.4-1.1-1.4H13.6c-.8,0-1.1.3-1.1.9,0,.7.2.9,1.1.9h18.1ZM30.7,46.4h-8.5c-.6,0-1,.3-1,.9,0,.6.4.9,1.1.9,5.6,0,11.2,0,16.8,0,.6,0,1.2-.5,1.2-1,0-.5-.2-.9-1.1-.9-2.8,0-5.6,0-8.4,0h0ZM39,37.9c-1.7,0-3.4,0-5.1,0-.6,0-.9.4-.9.9,0,.6.4.9,1.2.9,3.2,0,6.3,0,9.5,0s.3,0,.5,0c.5-.1.8-.5.7-1.1,0-.5-.4-.8-1-.8h-5,0ZM22.2,37.9c-1.4,0-2.8,0-4.1,0-.6,0-.8.3-.9.8,0,.6.3,1,1.2,1,2.5,0,5.1,0,7.7,0,0,0,.2,0,.2,0,.7,0,1-.4.9-1.1,0-.5-.4-.8-1-.8h-3.9Z"/>
        <path class="cls-1" d="M33,58.1c-.2,0-.3,0-.4,0-4.2,0-8.3,0-12.5,0-.2,0-.4,0-.6-.1-.5-.2-.6-.5-.4-.9.7-1.3,1.8-2.1,3-2.7,1.7-.8,3.5-1.1,5.3-.9,1.9.1,3.7.7,5.2,1.9.2.1.3.3.2.6-.2.7-.1,1.4.1,2.2h0Z"/>
        <path class="cls-1" d="M45.9,22.1c.3,2.9.2,5.9.2,8.8,0,1,0,2-.2,3,0,.3,0,.3-.4.2-1.3-.3-1.3-.3-1.5-1.6,0-.5-.2-1-.3-1.5-.2-.5,0-.9.2-1.3.6-2,1.1-4,1.6-6,.1-.5.2-1.1.4-1.6h0Z"/>
        <path class="cls-1" d="M17.2,10.9c-.1-1.8,0-3.7-.3-5.5,0-.4.4-1,.8-1.1.6-.1,1.1.2,1.3.7.2.7.2,1.3.2,2,0,1.7.2,3.4.2,5,0,.7-.4,1.1-1.1,1.1-.7,0-1-.4-1-1.1v-1.1h0Z"/>
        <path class="cls-1" d="M42.8,11.1c0,.4,0,.6,0,.9-.2.5-.7.8-1.1.7-.5,0-.9-.5-.9-1,0-1.6-.3-3.2-.5-4.9,0-.5-.2-1.1-.3-1.6-.1-.6.2-1.2.7-1.3.6-.2,1.2.1,1.3.8.3,1.4.5,2.9.6,4.3,0,.8.2,1.5.2,2.2Z"/>
        <path class="cls-1" d="M8.3,11.2c0,.6-.4,1.1-.9,1.2-.4,0-1-.3-1.1-.8-.7-2.1-1.5-4.3-2.4-6.3-.2-.5,0-1.1.5-1.3.5-.2,1.1,0,1.4.5.9,2.1,1.8,4.3,2.5,6.5,0,.1,0,.3,0,.3h0Z"/>
        <path class="cls-1" d="M30.4,15.3c-.7,0-1.2-.7-1-1.4.8-2.1,1.7-4.2,2.8-6.2.3-.6.9-.9,1.4-.6.6.3.8.9.5,1.5-.7,1.4-1.3,2.8-1.9,4.2-.2.6-.4,1.1-.7,1.7-.2.4-.4.9-1,.8h0Z"/>
        <path class="cls-1" d="M37.7,22.3c1.8,2.3,2.9,4.9,3.7,7.7.3,1,.5,2.1.8,3.1,0,.4,0,.4-.3.4-.5,0-1-.2-1.5-.1-.3,0-.4-.1-.5-.4-.4-3.4-1.1-6.8-2.1-10,0-.2,0-.3,0-.5,0,0,0,0,0,0h0Z"/>
        <path class="cls-1" d="M21.9,21.7c-.1,1-.2,1.9-.3,2.8,0,.5-.1,1-.1,1.5-.1,2.2-.3,4.4,0,6.7,0,.2,0,.2-.2.3-.4.2-.8.1-1.2,0-.3,0-.6.3-.8,0-.2-.3-.1-.7,0-1,.3-3,.9-6,2-8.8.2-.5.4-1,.8-1.6h0Z"/>
        <path class="cls-1" d="M14.4,21.3c.9,2.2,1.5,4.5,2,6.9.3,1.5.5,3,.7,4.5,0,.7,0,.9-.6.8-.4,0-.9.3-1.2,0-.2-.3-.1-.8-.2-1.2,0-.8-.1-1.6-.2-2.4,0-1.3-.2-2.5-.2-3.8-.1-1.6-.2-3.2-.3-4.8h0Z"/>
        <path class="cls-1" d="M53.1,26.7c-.5,1-1,2.1-1.5,3.1-.8,1.7-1.5,3.5-2,5.3-.5-.1-1-.3-1.4-.4-.4,0-.4-.2-.3-.5.6-1.8,1.5-3.5,2.7-5.1.7-.9,1.5-1.8,2.4-2.6,0,0,0,0,0,0h0Z"/>
        <path class="cls-1" d="M49.5,27.4c0,0,0,.2-.2.2,0,0,0-.2,0-.3,0,0,0,0,0,0h0Z"/>
        <path class="cls-1" d="M37.6,22.4c0,0-.1-.1,0-.2,0,0,.1,0,.2,0,0,0,0,0,0,0h0Z"/>
        <path class="cls-1" d="M8.5,25.2c0,0-.1-.1,0-.2,0,0,.1,0,.2,0,0,0,0,0,0,0Z"/>
        <path class="cls-1" d="M53,26.6s0-.2.2,0c0,0,0,.1,0,.2,0,0,0,0,0,0h0Z"/>
        <path class="cls-2" d="M31.7,44H13.6c-.9,0-1.1-.2-1.1-.9,0-.6.4-.9,1.1-.9h36.1c.9,0,1.4.6,1.1,1.4-.2.5-.6.5-1,.5-4,0-8,0-12,0h-6.1Z"/>
        <path class="cls-2" d="M30.7,46.4c2.8,0,5.6,0,8.4,0,.9,0,1.1.4,1.1.9,0,.5-.5,1-1.2,1-5.6,0-11.2,0-16.8,0-.8,0-1.1-.3-1.1-.9,0-.6.3-.9,1-.9,2.8,0,5.7,0,8.5,0Z"/>
        <path class="cls-2" d="M39,37.9h5c.5,0,.9.3,1,.8,0,.5-.2.9-.7,1.1-.1,0-.3,0-.5,0-3.2,0-6.3,0-9.5,0-.8,0-1.2-.3-1.2-.9,0-.6.3-.9.9-.9,1.7,0,3.4,0,5.1,0h0Z"/>
        <path class="cls-2" d="M22.2,37.9h3.9c.6,0,1,.3,1,.8,0,.6-.3,1-.9,1.1,0,0-.2,0-.2,0-2.5,0-5.1,0-7.7,0-.8,0-1.2-.4-1.2-1,0-.6.3-.8.9-.8,1.4,0,2.8,0,4.1,0h0Z"/>
      </g>
    </g>
  </g>
</svg>